<?xml version="1.0" standalone="no"?>
<!DOCTYPE svg PUBLIC "-//W3C//DTD SVG 20010904//EN"
 "http://www.w3.org/TR/2001/REC-SVG-20010904/DTD/svg10.dtd">
<svg version="1.0" xmlns="http://www.w3.org/2000/svg"
 width="512.000000pt" height="512.000000pt" viewBox="0 0 512.000000 512.000000"
 preserveAspectRatio="xMidYMid meet">
<metadata>
Created by potrace 1.11, written by Peter Selinger 2001-2013
</metadata>
<g transform="translate(0.000000,512.000000) scale(0.100000,-0.100000)"
fill="#000000" stroke="none">
<path d="M2358 5035 c-2 -2 -28 -6 -58 -9 -81 -7 -196 -25 -270 -42 -46 -11
-65 -15 -89 -20 -114 -24 -382 -128 -537 -210 -359 -189 -675 -474 -904 -814
-183 -272 -319 -601 -379 -920 -11 -55 -14 -78 -28 -200 -10 -85 -10 -447 0
-530 5 -36 10 -76 12 -90 7 -63 47 -246 70 -325 118 -407 325 -756 633 -1068
125 -127 254 -229 462 -367 59 -40 279 -148 383 -189 159 -63 395 -125 557
-147 30 -4 64 -9 75 -11 46 -9 465 -10 525 -2 72 10 117 16 170 24 221 34 521
136 730 247 99 53 235 136 283 172 38 29 100 77 134 103 104 82 260 240 367
373 264 331 430 694 507 1108 29 158 34 226 34 447 0 208 -6 285 -30 413 -3
15 -8 45 -11 67 -4 22 -21 95 -40 161 -168 616 -549 1125 -1094 1466 -271 169
-656 310 -942 343 -25 3 -57 8 -69 11 -28 7 -484 15 -491 9z"/>
</g>
</svg>
